<?xml version="1.0" standalone="no"?>
<!DOCTYPE svg PUBLIC "-//W3C//DTD SVG 20010904//EN"
 "http://www.w3.org/TR/2001/REC-SVG-20010904/DTD/svg10.dtd">
<svg version="1.0" xmlns="http://www.w3.org/2000/svg"
 width="260.000000pt" height="260.000000pt" viewBox="0 0 260.000000 260.000000"
 preserveAspectRatio="xMidYMid meet">
<metadata>
Created by potrace 1.14, written by Peter Selinger 2001-2017
</metadata>
<g transform="translate(0.000000,260.000000) scale(0.100000,-0.100000)"
fill="#000000" stroke="none">
<path d="M1075 2585 c-136 -25 -212 -48 -350 -109 -69 -31 -65 -28 -141 -80
-138 -94 -279 -230 -352 -338 -13 -21 -29 -35 -35 -31 -6 3 -7 1 -3 -6 4 -6
-1 -23 -12 -39 -61 -86 -140 -300 -165 -448 -23 -135 -19 -397 8 -514 3 -14 8
-36 11 -49 9 -44 45 -145 75 -209 16 -35 29 -65 29 -68 0 -2 32 -55 70 -118
68 -111 84 -128 255 -283 68 -61 266 -183 298 -183 9 0 17 -4 19 -8 4 -10 181
-66 263 -84 65 -14 388 -18 465 -6 120 19 279 71 395 130 298 151 532 427 636
753 48 148 58 230 54 430 -4 242 -34 372 -129 564 -93 186 -239 359 -401 471
-27 19 -52 38 -55 41 -3 4 -45 27 -95 52 -214 108 -369 145 -610 145 -88 0
-191 -6 -230 -13z"/>
</g>
</svg>
